# xmcd
#
# Track frame offsets: 
#        150
#        15758
#        30999
#        47496
#        69153
#        82148
#        95486
#        112719
#        125203
#        141630
#
# Disc length: 2156 seconds
#
# Revision: 0
# Processed by: cddbd v1.5.2PL0 Copyright (c) Steve Scherf et al.
# Submitted via: ExactAudioCopyFreeDBPlugin 1.0
#
DISCID=79086a0a
DTITLE=Chris Zalez - Machismo
DYEAR=2011
DGENRE=Country
TTITLE0=Son Of San Antone
TTITLE1=Mexican Hippies
TTITLE2=Next In Line
TTITLE3=Run To You
TTITLE4=Little Genie
TTITLE5=I Surrender
TTITLE6=I Can't Pretend
TTITLE7=You Already Know
TTITLE8=That's The Way You Do It
TTITLE9=What's Wrong
EXTD=
EXTT0=
EXTT1=
EXTT2=
EXTT3=
EXTT4=
EXTT5=
EXTT6=
EXTT7=
EXTT8=
EXTT9=
PLAYORDER=
